<?xml version="1.0" encoding="UTF-8" standalone="no"?>
<!-- Created with Inkscape (http://www.inkscape.org/) -->

<svg
   version="1.1"
   id="svg1"
   width="153.33333"
   height="153.33333"
   viewBox="0 0 153.33333 153.33333"
   sodipodi:docname="nadeko-don.png"
   inkscape:version="1.4.2 (ebf0e940d0, 2025-05-08)"
   inkscape:dataloss="true"
   xmlns:inkscape="http://www.inkscape.org/namespaces/inkscape"
   xmlns:sodipodi="http://sodipodi.sourceforge.net/DTD/sodipodi-0.dtd"
   xmlns="http://www.w3.org/2000/svg"
   xmlns:svg="http://www.w3.org/2000/svg">
  <defs
     id="defs1" />
  <sodipodi:namedview
     id="namedview1"
     pagecolor="#505050"
     bordercolor="#ffffff"
     borderopacity="1"
     inkscape:showpageshadow="0"
     inkscape:pageopacity="0"
     inkscape:pagecheckerboard="1"
     inkscape:deskcolor="#505050"
     inkscape:zoom="2.5870886"
     inkscape:cx="43.87171"
     inkscape:cy="52.568745"
     inkscape:window-width="1362"
     inkscape:window-height="717"
     inkscape:window-x="0"
     inkscape:window-y="0"
     inkscape:window-maximized="1"
     inkscape:current-layer="g1">
    <inkscape:page
       x="0"
       y="0"
       width="153.33333"
       height="153.33333"
       id="page2"
       margin="0"
       bleed="0" />
  </sodipodi:namedview>
  <g
     inkscape:groupmode="layer"
     inkscape:label="Image"
     id="g1">
    <path
       style="fill:#000000"
       d="m 109.59158,144.64005 -4.40843,-7.2843 -4.92491,2.48437 c -2.708699,1.36641 -6.27491,2.9018 -7.92491,3.41198 -2.229643,0.6894 -3,0.39095 -3,-1.16225 0,-1.58798 -1.440905,-2.08985 -5.999999,-2.08985 -4.208413,0 -6,-0.54864 -6,-1.83738 0,-1.01055 1.35,-2.82719 3,-4.03698 l 3,-2.19961 -3.333334,0.91976 c -1.833333,0.50587 -10.533333,0.93255 -19.333332,0.94818 -8.8,0.0156 -17.5,-0.38757 -19.333333,-0.896 -2.477683,-0.68713 -2.220988,-0.34555 1,1.3307 2.383333,1.24032 4.333333,3.0651 4.333333,4.05507 0,0.98997 -0.991117,2.18028 -2.202483,2.64512 -1.211366,0.46485 -5.682193,0.26969 -9.935171,-0.43368 -6.351339,-1.05041 -7.472143,-0.96492 -6.274182,0.47853 0.802178,0.96657 1.100947,2.11495 0.663931,2.55197 -0.437015,0.43701 -2.208158,0.43979 -3.935871,0.006 -1.727714,-0.43363 -5.205656,-2.15569 -7.72876,-3.8268 -2.856266,-1.89177 -6.096966,-6.05738 -8.5874626,-11.03838 0,0 -2.3614457,-4.41891 -3.0819795,-7.75842 C 4.7410271,116.99791 4.7722694,108.6665 4.7722694,108.6665 4.86111,98.571404 5.5258298,95.027663 8.96005,86.340848 l 4.082178,-10.325814 -5.1877809,0.829559 c -4.0357609,0.645344 -5.1877805,0.397782 -5.1877805,-1.114825 0,-1.069411 2.6442593,-3.843348 5.8761319,-6.164303 3.9633345,-2.846252 7.6394635,-7.368597 11.2931045,-13.892693 2.979335,-5.320025 7.201566,-11.594736 9.382736,-13.943801 2.18117,-2.349066 6.439388,-6.062913 9.462707,-8.252994 l 5.496945,-3.981966 -4.14811,-2.145071 c -2.28146,-1.179788 -5.319333,-4.065941 -6.750828,-6.413672 -1.431496,-2.347731 -2.596769,-5.768602 -2.589497,-7.601935 0.0073,-1.833333 0.375008,-4.6833333 0.817191,-6.3333332 0.442183,-1.65 1.63399,-2.9999999 2.64846,-2.9999999 1.062954,0 1.844492,1.3689232 1.844492,3.2307691 0,1.77916 1.718697,4.949466 3.825212,7.055981 2.103866,2.103866 6.153866,4.558464 8.999999,5.45466 2.846134,0.896197 11.474788,2.249275 19.174788,3.00684 7.699999,0.757565 18.736569,2.542125 24.525709,3.96569 5.78914,1.423565 13.394803,4.429391 16.901473,6.679613 3.50666,2.250222 8.55704,6.75329 11.22307,10.006817 2.66602,3.253527 7.15782,10.916593 9.98177,17.029036 3.86442,8.364512 6.84807,12.654208 12.06209,17.342061 3.8102,3.425692 7.46274,6.22853 8.11676,6.22853 0.65402,0 1.18912,0.975 1.18912,2.166667 0,1.732609 -0.86811,1.99375 -4.33333,1.303528 -2.38333,-0.474727 -6.60198,-1.983679 -9.37478,-3.353227 -2.7728,-1.369548 -4.50219,-1.806136 -3.84309,-0.970194 0.6591,0.835941 2.22597,4.669893 3.48194,8.519893 l 2.28358,6.999999 h 5.89284 c 4.55268,0 5.89284,0.49316 5.89284,2.168487 0,1.19266 -3.11812,7.34266 -6.92916,13.66666 -3.81104,6.324 -10.12722,16.44128 -14.03596,22.48285 -3.90874,6.04157 -7.45481,11.89157 -7.88015,13 -0.46809,1.21981 -2.42756,2.00041 -4.96404,1.97752 -3.63408,-0.0328 -4.77621,-1.00532 -8.5991,-7.32213 z m 11.3923,-2.30672 C 122.40323,139.95 128.45361,130.35 134.42919,121 l 10.86468,-17 h -9.3136 l -11.43956,1e-5 c -3.39601,8.02181 -5.75413,15.77485 -7.89358,11.3811 -5.55282,-11.40371 -2.76218,-5.67287 -5.67102,-11.28448 L 99.84665,104 h -9.486679 l 1.964775,3 c 1.080626,1.65 6.320512,9.9 11.644194,18.33333 5.32367,8.43333 10.52236,16.68333 11.55264,18.33333 1.03027,1.65 2.10013,3 2.37745,3 0.27733,0 1.66551,-1.95 3.08485,-4.33333 z m -87.972583,-9.0367 c -0.92288,-1.48685 -4.223777,-3.93835 -7.335325,-5.44777 -3.111548,-1.50942 -6.92241,-4.521 -8.468583,-6.6924 -1.546172,-2.1714 -3.09713,-6.1699 -3.446572,-8.88556 -0.446437,-3.46945 0.832481,-9.29852 4.30123,-19.604236 4.250441,-12.628131 5.886449,-15.695642 11.7706,-22.069846 3.75871,-4.071748 10.027622,-13.186185 13.930916,-20.254303 5.194146,-9.405605 7.635941,-12.644274 9.107424,-12.079612 1.326785,0.509135 1.729625,1.729221 1.184543,3.587637 -0.454292,1.548869 -1.692214,6.716125 -2.75094,11.482792 -1.058725,4.766666 -1.935373,12.704524 -1.948107,17.639684 -0.01345,5.213147 0.881711,11.234491 2.136324,14.370077 l 2.159475,5.397059 1.840372,-2.370077 1.840373,-2.370078 2.812383,3.71383 c 1.546811,2.042606 5.203585,4.933729 8.126164,6.424718 l 5.313781,2.710888 -0.796371,-3.758051 C 72.350981,93.024453 71.399543,82.933331 70.674678,72.666664 69.949813,62.399998 69.351474,50.349998 69.345036,45.888887 c -0.0088,-6.132076 0.451308,-8.11111 1.885965,-8.11111 1.138476,0 2.506645,2.418461 3.419856,6.045153 0.837203,3.324834 3.289521,10.574834 5.449595,16.11111 2.160074,5.536277 5.103073,11.565958 6.539997,13.399291 l 2.61259,3.333333 -1.3639,-5.029119 C 87.138995,68.87153 85.04641,62.679538 83.238951,57.877563 c -1.807458,-4.801975 -2.675638,-8.353462 -1.929288,-7.892192 0.746351,0.46127 1.359244,0.05326 1.361985,-0.906683 0.0027,-0.959946 1.146966,0.12743 2.542722,2.416392 1.395755,2.288962 4.096848,8.483966 6.002427,13.766677 1.90558,5.282711 4.194,14.959924 5.085377,21.504918 l 1.620687,11.899988 h 9.038569 c 7.84503,0 9.03857,-0.319794 9.03857,-2.421787 0,-1.331983 -0.65546,-5.967454 -1.45656,-10.301047 -0.80111,-4.333594 -3.14647,-11.606258 -5.2119,-16.161476 -2.06544,-4.555219 -5.7393,-11.169747 -8.16414,-14.698952 -2.424838,-3.529205 -6.692224,-8.897654 -9.483076,-11.929888 -4.433466,-4.816917 -4.776034,-5.629304 -2.712635,-6.432905 1.761505,-0.686027 4.12106,0.964029 9.285264,6.493264 3.807997,4.07716 9.135057,11.36744 11.837927,16.200621 2.70287,4.833182 5.96117,12.192131 7.24067,16.353221 1.27949,4.161089 2.7456,11.015616 3.25801,15.232283 l 0.93165,7.666666 h 6.4459 6.4459 l -0.73527,-3 c -0.4044,-1.649999 -2.44823,-6.832989 -4.54184,-11.517753 -2.09362,-4.684764 -3.80657,-9.404743 -3.80657,-10.488841 0,-1.272358 0.88814,-1.738835 2.5054,-1.315911 l 2.5054,0.655177 -3.31178,-8.166335 c -1.82148,-4.491484 -5.38016,-10.989297 -7.90819,-14.439583 -2.52802,-3.450287 -6.51064,-7.883974 -8.85027,-9.852639 -2.33962,-1.968666 -6.71239,-4.63324 -9.71726,-5.921277 -3.004865,-1.288037 -8.709372,-3.01259 -12.676679,-3.83234 -3.967308,-0.81975 -11.246013,-1.972877 -16.174899,-2.562505 -6.85825,-0.820432 -8.653526,-0.700829 -7.648974,0.509582 0.968768,1.167294 -0.232181,1.755756 -4.584311,2.246304 -3.243322,0.36557 -8.801284,2.068839 -12.351026,3.785043 -3.549741,1.716204 -9.154076,5.866434 -12.454075,9.222733 -3.3,3.3563 -7.065314,8.000457 -8.367363,10.320351 l -2.367363,4.217989 2.556037,-0.492248 c 2.104775,-0.405342 1.094774,2.37293 -5.720841,15.73667 -4.742294,9.298469 -9.030002,19.793494 -10.040456,24.576028 -0.9699672,4.590912 -1.4382825,11.498912 -1.0407003,15.351112 0.3975823,3.8522 1.7920113,9.246 3.0987313,11.98622 1.30672,2.74022 3.314727,5.00181 4.462238,5.02575 1.147511,0.0239 5.386384,1.20435 9.419717,2.62314 4.033333,1.41878 7.488417,2.5992 7.677965,2.62314 0.189547,0.0239 -0.410453,-1.17299 -1.333334,-2.65984 z m 63.937398,-2.36814 2.948699,-2.26183 -2.282032,-2.8569 -2.282032,-2.85691 -2.863303,5.69633 c -2.461733,4.89744 -2.555232,5.61533 -0.666667,5.11873 1.20815,-0.31768 3.523551,-1.59542 5.145335,-2.83942 z m -13.054999,-4.11752 c 3.676895,-0.71449 4.870442,-1.78295 6.160943,-5.51524 1.328601,-3.84248 1.247647,-5.24116 -0.476408,-8.23123 -1.242895,-2.15559 -3.449326,-3.76194 -5.494276,-4 L 80.666664,108.66666 80.286687,94.999997 79.906709,81.333331 h 2.524491 2.524491 l -4.793053,-9.240349 c -2.636179,-5.082192 -4.946984,-9.086418 -5.135121,-8.898281 -0.188138,0.188138 0.253391,6.596294 0.981174,14.240349 0.727783,7.644054 1.713199,16.841333 2.189813,20.438396 l 0.86657,6.540114 -5.199205,-1.03119 c -2.859562,-0.56715 -7.070224,-0.96678 -9.357026,-0.88805 -2.324685,0.08 -6.14572,-1.19584 -8.666666,-2.893859 C 53.362312,97.93011 49.833332,93.88668 47.999998,90.615062 45.092546,85.426657 44.666665,83.04021 44.666665,71.936554 v -12.73011 l -3.79349,6.063443 c -2.086419,3.334894 -6.031271,8.463444 -8.766337,11.396777 -3.775084,4.048744 -6.035863,8.591313 -9.386254,18.859748 -3.126443,9.582068 -4.137769,14.636528 -3.468157,17.333328 0.519888,2.09381 2.216209,5.16847 3.769602,6.83258 1.553393,1.66411 6.672116,4.21411 11.37494,5.66667 4.702825,1.45255 9.599313,2.64101 10.881086,2.64101 1.965731,0 2.24755,-0.99129 1.800549,-6.33334 -0.291471,-3.48333 -0.01982,-7.08036 0.603668,-7.9934 0.623488,-0.91304 4.772655,-2.04042 9.220369,-2.5053 7.119769,-0.74416 8.426189,-0.5058 10.925389,1.9934 1.561249,1.56125 2.838634,4.50513 2.838634,6.54196 0,2.03683 -0.88089,4.96097 -1.957534,6.4981 l -1.957535,2.79477 6.290868,-0.64953 c 3.459977,-0.35724 8.343032,-1.0483 10.851233,-1.53569 z M 30.169703,108.62811 c -0.460004,-1.19875 -0.836371,-6.85701 -0.836371,-12.573904 0,-7.57327 0.538203,-10.841025 1.98302,-12.040117 1.090661,-0.905168 2.912515,-1.28908 4.048563,-0.853137 1.707924,0.655392 1.999423,3.047402 1.683646,13.815834 L 36.666665,110 l -2.830296,0.40383 c -1.669367,0.23818 -3.173358,-0.49018 -3.666666,-1.77572 z m 32.584617,16.65831 c 1.674938,-0.8964 2.579011,-2.79043 2.579011,-5.40302 v -4.02276 l -7,0.40301 c -5.967859,0.34359 -7.059611,0.82085 -7.404289,3.23682 -0.222359,1.55859 0.570498,3.80859 1.761905,5 1.191407,1.19141 3.362782,2.16619 4.825278,2.16619 1.462496,0 3.819639,-0.62111 5.238095,-1.38024 z M 91.999997,93.49659 c 0,-2.96902 -0.851459,-5.876722 -2,-6.829926 -1.733509,-1.438685 -2,-0.749795 -2,5.170073 0,5.182157 0.482515,6.829926 2,6.829926 1.433918,0 2,-1.463341 2,-5.170073 z"
       id="path1"
       sodipodi:nodetypes="scsssssscscssssssscssssscsssssscsscssssssssssssssssscssssssssscccscccssssssssssssssssscccsscsscsssscssscssscssssssssssscccsssscssssssssssscssssscscsscccssssssscccccsssscscssscssssssssssssscssssssscsssscssssssssss" />
  </g>
</svg>
